<svg xmlns="http://www.w3.org/2000/svg" width="76" height="30" viewBox="0 0 76 19" fill="none" class="site-nav-desktop-logo fill-current"><path fill-rule="evenodd" clip-rule="evenodd" d="M75.882 14.657c-3.176 5.384-8.205 3.822-9.716 2.599-.643.436-1.77 1.392-3.273 1.282-3.202-.235-4.348-4.81-4.348-4.81.023.018-.954.337-1.482.331-.006 1.342-1.166 4.547-4.296 4.506-3.512-.046-4.226-5.279-4.226-5.279s-.35.486-1.678.97c.067-1.032.018 4.152-4.192 4.228-3.328.06-4.226-5.278-4.226-5.278s-.577.6-1.696.807c.071-1.047-.044 4.489-4.254 4.47-2.845-.01-3.817-3.288-3.742-3.742.097-.58-.961 3.824-3.725 3.756-1.14-.034-1.99-.86-2.524-1.96-.714.817-1.751 1.96-2.914 1.96-2.088 0-3.009-1.747-2.853-6.735.013-.591-.03-.824-.617-.912-.353-.06-.715-.17-1.097-.23-.123.41-1.163 7.744-4.738 7.883-1.2.047-1.856-.992-2.394-1.764-.826 1.093-1.916 1.799-3.469 1.799-2.63 0-4.422-2.127-4.422-4.75S1.792 9.04 4.422 9.04c.465 0 .596.067 1.02.191C4.57 1.275 6.633.032 8.438.032c1.733 0 4.694 4.022.528 14.224.925 3.043 2.919 2.87 3.877-3.393.195-1.274-.327-2.992.484-3.232 1.483-.438 1.64.877 2.335 1.096.735.232 1.164.209 1.87.356 1.206.236 1.676.883 1.53 2.326-.177 1.825-.486 4.482.455 4.806.679.235 1.918-1.172 2.135-1.942.217-.77.263-1.033.282-1.598.03-1.207.066-2.092.272-3.004.088-.354.189-.588.588-.604.329-.008.93-.107 1.195.1.353.264.309.533.268 1.241-.41 10.094 2.748 5.055 3.69 1.02C27.61 6.866 27.84.115 30.698.002c1.487-.059 2.144 1.132 2.216 2.021.205 2.511-.94 6.67-2.447 9.468-.861 5.707 3.765 6.836 4.504 2.28-1.21-.575-2.518-2.904-1.454-4.04.598-.636 3.084.279 3.124 2.275 1.22-.326 1.382-1.015 1.4-.9-.336-4.563-.025-10.99 2.834-11.104 1.487-.059 2.144 1.132 2.216 2.021.205 2.511-.94 6.67-2.447 9.468-.861 5.707 3.764 6.836 4.504 2.28-.896-.173-2.788-2.65-1.696-4.04.583-.742 3.06.802 3.337 2.34 1.171-.33 1.33-.997 1.347-.885-.335-4.562-.024-10.99 2.835-11.103 1.486-.059 2.144 1.132 2.216 2.021.204 2.511-.941 6.67-2.448 9.468-.86 5.707 3.765 6.836 4.505 2.28-1.231-.205-2.981-2.82-1.573-4.159.563-.534 2.713.854 3.216 2.437.7-.027 1.135-.268 1.228-.293C57 6.482 57.831.056 60.906.002c1.663-.029 3.288.899 2.574 5.994-.68 4.861-3.128 6.902-3.122 6.933.142.582 1.398 5.456 4.56 2.884-.163-.37-.327-.749-.419-1.208-.524-2.672.506-5.69 3.304-6.179 1.604-.28 3.114.501 3.353 2.261.393 2.88-2.208 4.965-3.196 5.418-.443-.252 4.014 2.607 6.66-3.122.153-.327.338-.3.578-.13.169.118 1.133 1.031.684 1.804ZM6.336 13.081c-.135-.402-.411-1.29-.509-1.673-.538-.468-.922-.544-1.612-.544-1.535 0-2.438 1.419-2.438 2.948 0 1.53.984 2.95 2.518 2.95 1.33 0 2.342-.905 2.651-2.185-.216-.499-.43-.957-.61-1.496ZM8.4 2.138c-1.078 0-1.444 2.572-1.373 4.766.063 1.94.605 3.648.886 4.413.071.096.058.034.122.136C9.907 7.35 9.13 2.138 8.4 2.138Zm22.453.08c-1.394-.16-1.385 5.646-1.212 6.948.724-1.158 1.982-6.636 1.212-6.948Zm10.177 0c-1.394-.16-1.385 5.646-1.212 6.948.724-1.158 1.981-6.636 1.212-6.948Zm10.096.081c-1.394-.16-1.385 5.646-1.212 6.948.724-1.158 1.981-6.636 1.212-6.948Zm9.934-.42c-2.171.436-1.666 7.675-1.336 8.945 2.558-3.513 2.61-9.077 1.336-8.946Zm8.138 9.046c-.11-.461-.663-.708-1.044-.647-1.09.149-2.147 1.507-1.738 3.574.09.46.319.884.315.87 2.44-1.637 2.648-2.927 2.467-3.797ZM23.22 7.47a1.575 1.575 0 1 1-.001-3.151 1.575 1.575 0 0 1 0 3.15Z" fill="#0D0C22"/></svg>